<svg width="75" height="75" viewBox="0 0 75 75" fill="none" xmlns="http://www.w3.org/2000/svg">
<path d="M42.3887 32.0645H74.4531L74.4521 42.3877H49.6885L67.2002 59.8994L59.8994 67.1992L42.3887 49.6885V74.4531H32.0645V49.6875L14.5527 67.1992L7.25293 59.8994L24.7656 42.3877H0V32.0645H24.7646L7.25391 14.5537L14.5537 7.25391L32.0654 24.7646V0H42.3887V32.0645Z" fill="black"></path>
<path d="M59.2939 8.43555C62.9438 8.43574 65.9023 11.395 65.9023 15.0449C65.9022 18.6947 62.9437 21.6531 59.2939 21.6533C55.644 21.6533 52.6848 18.6948 52.6846 15.0449C52.6846 11.3949 55.6439 8.43555 59.2939 8.43555Z" fill="black"></path>
</svg>