<svg width="424" height="80" viewBox="0 0 424 80" fill="none" xmlns="http://www.w3.org/2000/svg">
<path d="M42.3887 32.0645H74.4531L74.4521 42.3877H49.6885L67.2002 59.8994L59.8994 67.1992L42.3887 49.6885V74.4531H32.0645V49.6875L14.5527 67.1992L7.25293 59.8994L24.7656 42.3877H0V32.0645H24.7646L7.25391 14.5537L14.5537 7.25391L32.0654 24.7646V0H42.3887V32.0645Z" fill="black"></path>
<path d="M59.2939 8.43555C62.9438 8.43574 65.9023 11.395 65.9023 15.0449C65.9022 18.6947 62.9437 21.6531 59.2939 21.6533C55.644 21.6533 52.6848 18.6948 52.6846 15.0449C52.6846 11.3949 55.6439 8.43555 59.2939 8.43555Z" fill="black"></path>
<path d="M363.314 56.7485C363.314 60.0261 360.657 62.6831 357.379 62.6831C354.102 62.6831 351.445 60.0261 351.445 56.7485C351.445 53.4709 354.102 50.8138 357.379 50.8138C360.657 50.8138 363.314 53.4709 363.314 56.7485Z" fill="black"></path>
<path d="M273.006 61.5832V3.773H283.329V32.9258C283.412 23.4285 289.275 17.73 296.873 17.73C306.288 17.73 311.16 24.8324 311.16 32.6781V61.5832H300.837V36.3119C300.837 31.2741 297.203 27.6403 292.248 27.6403C286.88 27.6403 283.329 31.5219 283.329 36.7248V61.5832H273.006Z" fill="black"></path>
<path d="M336.747 61.5832C329.22 61.5832 323.717 58.3461 323.717 49.2014V28.5651H316.11V19.6631H323.879V10.2756H333.671V19.6631H345.568V28.5651H333.671V48.2303C333.671 51.3055 335.209 52.4385 337.718 52.4385H344.677V61.5832H336.747Z" fill="black"></path>
<path d="M243.575 79.9998C231.352 79.9998 223.259 75.9531 223.259 69.3462C223.259 64.804 226.975 61.0051 235.812 61.0051H237.299C230.527 60.5095 226.893 58.2797 226.893 54.4808C226.893 51.1773 230.196 48.2042 237.629 48.0391C230.114 46.1396 225.737 40.4412 225.737 33.1736C225.737 24.0065 233.087 17.73 243.327 17.73C247.539 17.73 251.09 18.9688 253.072 19.8772L265.708 18.1429V27.8055L249.108 27.8881C257.78 28.0533 260.505 33.1736 260.505 36.7248C260.505 44.7356 252.164 48.6997 243.327 48.6997C241.51 48.6997 239.859 48.5346 238.29 48.2042C237.546 48.6172 237.133 49.443 237.133 50.2689C237.133 51.9206 238.868 52.7465 241.015 52.7465H250.925C260.175 52.7465 266.369 57.7016 266.369 65.0518C266.369 76.2009 255.055 79.9998 243.575 79.9998ZM232.509 65.8776C232.509 70.0069 237.381 71.3283 243.575 71.3283C250.843 71.3283 255.88 69.594 255.88 65.6299C255.88 63.1523 253.981 61.3354 249.769 61.3354H238.62C234.821 61.3354 232.509 63.3175 232.509 65.8776ZM235.977 33.1736C235.977 38.0462 238.868 40.9367 243.327 40.9367C247.787 40.9367 250.677 38.0462 250.677 33.1736C250.677 28.9617 247.787 25.4931 243.327 25.4931C238.868 25.4931 235.977 28.9617 235.977 33.1736Z" fill="black"></path>
<path d="M207.758 61.5832V18.8037H218.081V61.5832H207.758Z" fill="black"></path>
<path d="M412.141 61.5832V18.8037H422.465V61.5832H412.141Z" fill="black"></path>
<path d="M218.854 9.40479C218.854 12.6824 216.197 15.3394 212.92 15.3394C209.642 15.3394 206.985 12.6824 206.985 9.40479C206.985 6.12718 209.642 3.47016 212.92 3.47016C216.197 3.47016 218.854 6.12718 218.854 9.40479Z" fill="black"></path>
<path d="M423.238 9.40479C423.238 12.6824 420.581 15.3394 417.303 15.3394C414.025 15.3394 411.368 12.6824 411.368 9.40479C411.368 6.12718 414.025 3.47016 417.303 3.47016C420.581 3.47016 423.238 6.12718 423.238 9.40479Z" fill="black"></path>
<path d="M188.79 61.5832V3.773H199.113V61.5832H188.79Z" fill="black"></path>
<path d="M161.271 62.6568C149.048 62.6568 139.468 53.9852 139.468 40.0282C139.468 27.1448 148.635 17.73 161.519 17.73C174.732 17.73 182.495 27.6403 182.495 38.4591C182.495 40.6889 182.248 42.9187 182 44.1575H149.709C151.195 50.2689 155.903 53.6549 161.766 53.6549C166.391 53.6549 170.686 51.2599 172.503 48.3694L180.018 53.4897C176.632 58.7752 170.19 62.6568 161.271 62.6568ZM149.791 35.8989H172.503C172.172 31.0263 167.96 26.4841 161.519 26.4841C155.49 26.4841 151.195 30.2831 149.791 35.8989Z" fill="black"></path>
<path d="M108.911 62.6568C98.3402 62.6568 90.3294 52.9116 90.3294 40.1934C90.3294 26.8971 98.2576 17.73 108.911 17.73C117.5 17.73 123.529 23.5936 124.437 33.9169V3.773H134.761V61.5832H124.437V45.7267C123.529 56.5454 118.078 62.6568 108.911 62.6568ZM100.818 40.1934C100.818 48.1217 106.186 53.242 112.958 53.242C119.647 53.242 124.933 47.7087 124.933 40.1934C124.933 32.1 119.317 27.1448 112.875 27.1448C106.186 27.1448 100.818 32.4303 100.818 40.1934Z" fill="black"></path>
<path d="M381.805 62.6623C374.036 62.6623 368.048 57.4829 368.048 49.3093C368.048 41.5404 373.794 36.9275 381.886 36.1992L394.996 34.9853C394.996 30.6153 391.759 27.2973 386.661 27.2973C381.482 27.2973 379.216 30.6962 378.649 33.2858L369.666 30.7771C371.689 23.0891 377.921 18.6381 386.661 18.6381C399.285 18.6381 404.869 27.2163 404.869 35.3899V61.6102H394.915V49.0666C394.915 57.8876 389.655 62.6623 381.805 62.6623ZM378.002 49.2284C378.002 52.3846 380.753 54.4887 384.638 54.4887C391.759 54.4887 394.996 49.8758 394.996 44.6156V42.7543L384.071 43.8063C380.43 44.211 378.002 45.9913 378.002 49.2284Z" fill="black"></path>
</svg>