<svg width="468" height="80" viewBox="0 0 468 80" fill="none" xmlns="http://www.w3.org/2000/svg">
<path fill-rule="evenodd" clip-rule="evenodd" d="M467.504 68.94V2.40234H453.666V27.6253C450.329 22.6194 445.128 19.7741 438.357 19.7741C425.894 19.7741 415.982 30.9618 415.982 44.7988C415.982 58.6353 425.894 69.9218 438.357 69.9218C445.128 69.9218 450.329 67.0753 453.666 62.0706V68.94H467.504ZM453.667 44.7991C453.667 51.5697 448.368 56.6732 441.596 56.6732C434.924 56.6732 429.526 51.472 429.526 44.7991C429.526 38.2244 434.924 32.9244 441.596 32.9244C448.368 32.9244 453.667 38.1255 453.667 44.7991ZM409.979 32.238C411.647 32.238 413.315 32.5322 414.984 32.9245V20.3627C413.413 20.0686 411.844 19.7745 410.371 19.7745C404.974 19.7745 400.754 22.1298 397.908 26.2516V20.7557H384.071V68.9404H397.908V45.1916C397.908 36.261 403.305 32.238 409.979 32.238ZM377.993 8.34177C377.993 3.82706 374.166 0 369.553 0C364.941 0 361.113 3.82706 361.113 8.34177C361.113 12.9535 364.941 16.7806 369.553 16.7806C374.166 16.7806 377.993 12.9535 377.993 8.34177ZM357.688 44.7988C357.688 30.9618 347.776 19.7741 335.312 19.7741C328.639 19.7741 323.438 22.5218 320.102 27.5265V2.40234H306.264V68.94H320.102V62.1688C323.438 67.1741 328.639 69.9218 335.312 69.9218C347.776 69.9218 357.688 58.6353 357.688 44.7988ZM344.146 44.7991C344.146 51.472 338.846 56.6732 332.174 56.6732C325.402 56.6732 320.103 51.5697 320.103 44.7991C320.103 38.1255 325.402 32.9244 332.174 32.9244C338.846 32.9244 344.146 38.2244 344.146 44.7991ZM284.87 68.94H298.707V2.40234H284.87V27.6253C281.534 22.6194 276.333 19.7741 269.561 19.7741C257.099 19.7741 247.186 30.9618 247.186 44.7988C247.186 58.6353 257.099 69.9218 269.561 69.9218C276.333 69.9218 281.534 67.0753 284.87 62.0706V68.94ZM284.869 44.7991C284.869 51.5697 279.57 56.6732 272.799 56.6732C266.126 56.6732 260.728 51.472 260.728 44.7991C260.728 38.2244 266.126 32.9244 272.799 32.9244C279.57 32.9244 284.869 38.1255 284.869 44.7991ZM228.28 68.9404H242.117V41.6586C242.117 28.0174 234.659 19.7745 222.294 19.7745C216.798 19.7745 212.284 22.4245 209.242 27.0369V20.7557H195.405V68.9404H209.242V43.4257C209.242 37.1445 212.971 33.0222 218.761 33.0222C224.452 33.0222 228.28 37.1445 228.28 43.4257V68.9404ZM190.096 48.1357C190.292 46.5657 190.39 44.3086 190.39 43.2292C190.39 29.9798 179.693 19.7745 166.641 19.7745C152.607 19.7745 141.616 30.5686 141.616 44.6027C141.616 58.8327 152.706 69.9221 166.935 69.9221C179.006 69.9221 188.133 63.1504 189.703 52.748H176.16C175.375 56.0845 171.94 58.4404 166.543 58.4404C160.066 58.4404 155.257 54.4163 154.276 48.1357H190.096ZM175.965 39.3029H154.964C156.632 33.6118 160.755 30.9624 166.054 30.9624C171.157 30.9624 175.573 34.3971 175.965 39.3029ZM109.409 34.5927C109.409 32.3357 111.765 31.2563 114.906 31.2563C119.322 31.2563 121.971 33.4151 122.168 35.8686H136.103C134.925 25.1722 125.603 19.7745 115.2 19.7745C103.325 19.7745 96.0628 26.6433 96.0628 35.5739C96.0628 53.5333 123.149 46.468 123.149 54.4163C123.149 56.6733 120.793 58.0474 116.672 58.0474C112.059 58.0474 108.624 55.888 108.33 52.6492H95.0816C96.0628 63.5427 104.797 69.9221 117.359 69.9221C128.252 69.9221 136.593 63.1504 136.593 54.318C136.593 34.201 109.409 42.0516 109.409 34.5927ZM80 40C80 17.9082 62.0912 0 40 0H0V20C0 30.9082 8.73706 39.76 19.5935 39.9788H0C0 62.0706 17.9088 79.9788 40 79.9788V80C62.0912 80 80 62.0912 80 40ZM362.685 68.9393H376.522V20.7546H362.685V68.9393Z" fill="white"></path>
</svg>