<svg width="22" height="22" viewBox="0 0 22 22" fill="none" xmlns="http://www.w3.org/2000/svg">
<path d="M12.5254 9.47461H22V12.5254H14.683L19.8569 17.6993L17.7001 19.8569L12.5254 14.6815V22H9.47461V14.6823L4.30071 19.8569L2.14307 17.7001L7.31773 12.5254H0V9.47461H7.3185L2.14383 4.29994L4.30071 2.14307L9.47461 7.31696V0H12.5254V9.47461Z" fill="black"/>
<path d="M19.4737 4.44604C19.4737 5.5246 18.5994 6.39894 17.5208 6.39894C16.4423 6.39894 15.5679 5.5246 15.5679 4.44604C15.5679 3.36749 16.4423 2.49315 17.5208 2.49315C18.5994 2.49315 19.4737 3.36749 19.4737 4.44604Z" fill="black"/>
</svg>
