<svg xmlns="http://www.w3.org/2000/svg" width="13.333" height="13.333" viewBox="0 0 13.333 13.333" fill="none">
  <path d="M 13.333 6.667 L 12.583 6.667 C 12.583 9.934 9.934 12.583 6.667 12.583 L 6.667 13.333 L 6.667 14.083 C 10.763 14.083 14.083 10.763 14.083 6.667 L 13.333 6.667 Z M 6.667 13.333 L 6.667 12.583 C 3.399 12.583 0.75 9.934 0.75 6.667 L 0 6.667 L -0.75 6.667 C -0.75 10.763 2.571 14.083 6.667 14.083 L 6.667 13.333 Z M 0 6.667 L 0.75 6.667 C 0.75 3.399 3.399 0.75 6.667 0.75 L 6.667 0 L 6.667 -0.75 C 2.571 -0.75 -0.75 2.571 -0.75 6.667 L 0 6.667 Z M 6.667 0 L 6.667 0.75 C 9.934 0.75 12.583 3.399 12.583 6.667 L 13.333 6.667 L 14.083 6.667 C 14.083 2.571 10.763 -0.75 6.667 -0.75 L 6.667 0 Z" fill="currentColor" fill-rule="nonzero"></path>
</svg>